<svg xmlns="http://www.w3.org/2000/svg" viewBox="0 0 330 192" font-family="Georgia, serif" font-size="13" fill="none" stroke="currentColor" stroke-width="1.6" color="#1f2937">
  <defs><marker id="k4a14" viewBox="0 0 10 10" refX="9" refY="5" markerWidth="7" markerHeight="7" orient="auto"><path d="M0 0L10 5L0 10z" fill="currentColor" stroke="none"/></marker></defs>
  <line x1="4" y1="95" x2="22" y2="95"/>
  <line x1="22" y1="45" x2="22" y2="145"/>
  <line x1="22" y1="45" x2="34" y2="45" marker-end="url(#k4a14)"/>
  <rect x="36" y="33" width="24" height="24" rx="2"/>
  <line x1="48" y1="80" x2="48" y2="59" marker-end="url(#k4a14)"/>
  <line x1="60" y1="45" x2="76" y2="45" marker-end="url(#k4a14)"/>
  <rect x="78" y="30" width="32" height="30" rx="2"/>
  <line x1="110" y1="45" x2="122" y2="45" marker-end="url(#k4a14)"/>
  <rect x="124" y="33" width="28" height="24" rx="2"/>
  <path d="M152 45H170V81" marker-end="url(#k4a14)"/>
  <line x1="22" y1="145" x2="34" y2="145" marker-end="url(#k4a14)"/>
  <rect x="36" y="133" width="24" height="24" rx="2"/>
  <line x1="48" y1="180" x2="48" y2="159" marker-end="url(#k4a14)"/>
  <line x1="60" y1="145" x2="76" y2="145" marker-end="url(#k4a14)"/>
  <rect x="78" y="130" width="32" height="30" rx="2"/>
  <line x1="110" y1="145" x2="122" y2="145" marker-end="url(#k4a14)"/>
  <rect x="124" y="133" width="28" height="24" rx="2"/>
  <path d="M152 145H170V109" marker-end="url(#k4a14)"/>
  <rect x="158" y="83" width="24" height="24" rx="2"/>
  <line x1="182" y1="95" x2="194" y2="95" marker-end="url(#k4a14)"/>
  <rect x="196" y="83" width="26" height="24" rx="2"/>
  <path stroke-width="1.3" d="M201 96L204 94L208 102L213 88H219"/>
  <line x1="222" y1="95" x2="242" y2="95" marker-end="url(#k4a14)"/>
  <rect x="244" y="80" width="36" height="30" rx="2"/>
  <line x1="262" y1="140" x2="262" y2="112" marker-end="url(#k4a14)"/>
  <line class="acc" stroke="#2b59c3" x1="280" y1="95" x2="303" y2="79" marker-end="url(#k4a14)"/>
  <line class="acc" stroke="#2b59c3" x1="280" y1="95" x2="303" y2="111" marker-end="url(#k4a14)"/>
  <rect class="acc" stroke="#2b59c3" stroke-width="1.3" stroke-dasharray="5 4" x="29" y="122" width="88" height="64" rx="4"/>
  <g fill="currentColor" stroke="none">
    <text x="4" y="87" font-style="italic">u(t)</text>
    <text x="48" y="50" text-anchor="middle" font-size="15">×</text>
    <text x="48" y="150" text-anchor="middle" font-size="15">×</text>
    <text x="54" y="77" font-size="11" font-style="italic">S cos ω₀t</text>
    <text x="54" y="177" font-size="11" font-style="italic">S sin ω₀t</text>
    <text x="91" y="51" text-anchor="middle" font-size="15">∫</text>
    <text x="100" y="40" font-size="8" font-style="italic">T</text>
    <text x="97" y="57" font-size="8">0</text>
    <text x="91" y="151" text-anchor="middle" font-size="15">∫</text>
    <text x="100" y="140" font-size="8" font-style="italic">T</text>
    <text x="97" y="157" font-size="8">0</text>
    <text x="138" y="49" text-anchor="middle" font-size="10">Кв.</text>
    <text x="138" y="149" text-anchor="middle" font-size="10">Кв.</text>
    <text x="175" y="73" font-size="11">+</text>
    <text x="175" y="126" font-size="11">+</text>
    <text x="170" y="100" text-anchor="middle" font-size="14">Σ</text>
    <text x="232" y="88" text-anchor="middle" font-style="italic">z</text>
    <text x="262" y="100" text-anchor="middle" font-size="12">ПУ</text>
    <text x="268" y="136" font-style="italic">h</text>
    <text x="306" y="80" font-size="12" font-style="italic">H₁</text>
    <text x="306" y="120" font-size="12" font-style="italic">H₀</text>
    <text class="accf" fill="#2b59c3" x="122" y="183" font-size="11">корреляционный приёмник</text>
  </g>
</svg>
