<svg xmlns="http://www.w3.org/2000/svg" viewBox="0 0 360 220" font-family="Georgia, serif" font-size="12" fill="none" stroke="currentColor" stroke-width="1.5" color="#1f2937">
  <defs><marker id="k5a14" viewBox="0 0 10 10" refX="9" refY="5" markerWidth="7" markerHeight="7" orient="auto"><path d="M0 0L10 5L0 10z" fill="currentColor" stroke="none"/></marker></defs>
  <line x1="6" y1="108" x2="26" y2="108"/>
  <line x1="26" y1="40" x2="26" y2="160"/>
  <line x1="26" y1="40" x2="44" y2="40" marker-end="url(#k5a14)"/>
  <line x1="26" y1="160" x2="44" y2="160" marker-end="url(#k5a14)"/>
  <!-- верхняя ветвь -->
  <rect x="46" y="28" width="24" height="24" rx="2"/>
  <line x1="58" y1="74" x2="58" y2="54" marker-end="url(#k5a14)"/>
  <line x1="70" y1="40" x2="90" y2="40" marker-end="url(#k5a14)"/>
  <rect x="92" y="26" width="30" height="28" rx="2"/>
  <line x1="122" y1="40" x2="212" y2="40" marker-end="url(#k5a14)"/>
  <polyline points="140,40 140,76 160,76"/>
  <rect x="160" y="64" width="36" height="24" rx="2"/>
  <polyline points="196,76 226,76 226,54" marker-end="url(#k5a14)"/>
  <rect x="214" y="28" width="24" height="24" rx="2"/>
  <polyline points="238,40 262,40 262,86" marker-end="url(#k5a14)"/>
  <circle cx="140" cy="40" r="2.3" fill="currentColor" stroke="none"/>
  <!-- нижняя ветвь -->
  <rect x="46" y="148" width="24" height="24" rx="2"/>
  <line x1="58" y1="200" x2="58" y2="174" marker-end="url(#k5a14)"/>
  <line x1="70" y1="160" x2="90" y2="160" marker-end="url(#k5a14)"/>
  <rect x="92" y="146" width="30" height="28" rx="2"/>
  <line x1="122" y1="160" x2="212" y2="160" marker-end="url(#k5a14)"/>
  <polyline points="140,160 140,196 160,196"/>
  <rect x="160" y="184" width="36" height="24" rx="2"/>
  <polyline points="196,196 226,196 226,174" marker-end="url(#k5a14)"/>
  <rect x="214" y="148" width="24" height="24" rx="2"/>
  <polyline points="238,160 262,160 262,124" marker-end="url(#k5a14)"/>
  <circle cx="140" cy="160" r="2.3" fill="currentColor" stroke="none"/>
  <!-- сумма и ПУ -->
  <rect x="248" y="88" width="28" height="34" rx="3"/>
  <line x1="276" y1="105" x2="290" y2="105" marker-end="url(#k5a14)"/>
  <rect class="acc" stroke="#2b59c3" x="292" y="89" width="34" height="32" rx="3"/>
  <line x1="309" y1="150" x2="309" y2="123" marker-end="url(#k5a14)"/>
  <line x1="326" y1="105" x2="350" y2="84" marker-end="url(#k5a14)"/>
  <line x1="326" y1="105" x2="350" y2="126" marker-end="url(#k5a14)"/>
  <g fill="currentColor" stroke="none" text-anchor="middle">
    <text x="14" y="100" font-style="italic">u(t)</text>
    <text x="58" y="45" font-size="13">×</text>
    <text x="58" y="165" font-size="13">×</text>
    <text x="226" y="45" font-size="13">×</text>
    <text x="226" y="165" font-size="13">×</text>
    <text x="82" y="72" font-size="10" font-style="italic">s₀(t)</text>
    <text x="84" y="198" font-size="10" font-style="italic">ŝ₀(t)</text>
    <text x="104" y="46" font-size="16">∫</text>
    <text x="115" y="36" font-size="8" font-style="italic">T</text>
    <text x="115" y="50" font-size="8">0</text>
    <text x="104" y="166" font-size="16">∫</text>
    <text x="115" y="156" font-size="8" font-style="italic">T</text>
    <text x="115" y="170" font-size="8">0</text>
    <text x="178" y="80" font-size="11" font-style="italic">T</text>
    <text x="178" y="200" font-size="11" font-style="italic">T</text>
    <text x="270" y="82" font-size="11">+</text>
    <text x="270" y="136" font-size="11">+</text>
    <text x="262" y="110" font-size="14">Σ</text>
    <text x="309" y="109" font-size="11">ПУ</text>
    <text x="316" y="164" font-size="11" font-style="italic">C = 0</text>
    <text x="344" y="76" font-size="11">«0»</text>
    <text x="344" y="142" font-size="11">«1»</text>
  </g>
</svg>
